<svg id="Gruppe_102" data-name="Gruppe 102" xmlns="http://www.w3.org/2000/svg" xmlns:xlink="http://www.w3.org/1999/xlink" width="105.613" height="105.624" viewBox="0 0 105.613 105.624">
  <defs>
    <clipPath id="clip-path">
      <rect id="Rechteck_80" data-name="Rechteck 80" width="105.613" height="105.624" fill="#5ba60d"/>
    </clipPath>
  </defs>
  <g id="Gruppe_101" data-name="Gruppe 101" clip-path="url(#clip-path)">
    <path id="Pfad_2556" data-name="Pfad 2556" d="M191.747,100.124c-.264,1.974-.46,3.961-.8,5.921a52.21,52.21,0,0,1-44.19,42.7c-1.372.194-2.753.333-4.129.5h-6.319c-1.472-.2-2.944-.385-4.415-.588a50.456,50.456,0,0,1-14.089-4.168c-1.139-.52-1.551-1.434-1.118-2.363a1.723,1.723,0,0,1,2.51-.726,44.959,44.959,0,0,0,13.016,3.877c18.468,2.327,33.81-3.568,45.6-18,7.843-9.6,11.156-20.851,10.432-33.2a47.6,47.6,0,0,0-13.246-30.536c-.371-.4-.772-.767-1.126-1.178a1.712,1.712,0,0,1-.011-2.464,1.672,1.672,0,0,1,2.456.149c1.163,1.189,2.318,2.393,3.376,3.672A51.223,51.223,0,0,1,191.367,90.9c.114.968.253,1.934.38,2.9Z" transform="translate(-86.773 -44.259)" fill="#5ba60d"/>
    <path id="Pfad_2557" data-name="Pfad 2557" d="M191.747,100.124c-.264,1.974-.46,3.961-.8,5.921a52.21,52.21,0,0,1-44.19,42.7c-1.372.194-2.753.333-4.129.5h-6.319c-1.472-.2-2.944-.385-4.415-.588a50.456,50.456,0,0,1-14.089-4.168c-1.139-.52-1.551-1.434-1.118-2.363a1.723,1.723,0,0,1,2.51-.726,44.959,44.959,0,0,0,13.016,3.877c18.468,2.327,33.81-3.568,45.6-18,7.843-9.6,11.156-20.851,10.432-33.2a47.6,47.6,0,0,0-13.246-30.536c-.371-.4-.772-.767-1.126-1.178a1.712,1.712,0,0,1-.011-2.464,1.672,1.672,0,0,1,2.456.149c1.163,1.189,2.318,2.393,3.376,3.672A51.223,51.223,0,0,1,191.367,90.9c.114.968.253,1.934.38,2.9Z" transform="translate(-86.773 -44.259)" fill="#5ba60d"/>
    <path id="Pfad_2558" data-name="Pfad 2558" d="M127.709,141.615a6.826,6.826,0,0,1-.654.912q-5.354,5.38-10.728,10.738c-2.315,2.311-4.564,2.3-6.9-.028q-3.461-3.454-6.915-6.916c-2.167-2.178-2.171-4.509-.005-6.683q5.394-5.412,10.808-10.8a11.4,11.4,0,0,1,.962-.764c-.378-.4-.619-.668-.874-.922q-5.4-5.4-10.8-10.807c-2.279-2.282-2.291-4.567-.037-6.829q3.488-3.5,6.988-6.987c2.184-2.172,4.5-2.173,6.679,0q5.411,5.394,10.8,10.806c.262.263.486.564.8.929.366-.347.633-.589.888-.843q5.369-5.365,10.735-10.732c2.386-2.384,4.606-2.4,6.97-.037q3.461,3.454,6.915,6.916c2.173,2.184,2.176,4.5,0,6.679q-5.394,5.412-10.808,10.8a11.522,11.522,0,0,1-.961.765c.377.4.618.667.872.921q5.365,5.369,10.732,10.735c2.409,2.411,2.4,4.611-.032,7.043q-3.42,3.423-6.844,6.842c-2.185,2.173-4.5,2.177-6.679,0q-5.737-5.717-11.461-11.446a5.31,5.31,0,0,0-.453-.3M142.977,151.7a11.916,11.916,0,0,0,.934-.752q3.468-3.447,6.919-6.911c.973-.974.971-1.128-.028-2.127q-6.085-6.089-12.172-12.174c-1.431-1.432-1.434-2.15-.014-3.571q6.121-6.124,12.244-12.246c.935-.936.932-1.105-.017-2.056q-3.418-3.425-6.843-6.843c-.946-.944-1.114-.946-2.055-.006q-6.125,6.12-12.247,12.244c-1.418,1.417-2.135,1.411-3.571-.024q-6.124-6.121-12.246-12.244c-.9-.9-1.094-.9-1.982-.017q-3.463,3.452-6.916,6.914c-.93.932-.927,1.1.029,2.054q6.121,6.125,12.244,12.246c1.384,1.385,1.387,2.124.013,3.5q-6.156,6.161-12.316,12.319c-.893.895-.89,1.072.016,1.981q3.417,3.426,6.842,6.843c.995.994,1.14,1,2.127.009q6.089-6.085,12.174-12.173c1.466-1.465,2.161-1.461,3.644.021q6.088,6.086,12.177,12.169a13.2,13.2,0,0,0,1.041.844" transform="translate(-75.13 -75.136)" fill="#5ba60d"/>
    <path id="Pfad_2559" data-name="Pfad 2559" d="M127.709,141.615a6.826,6.826,0,0,1-.654.912q-5.354,5.38-10.728,10.738c-2.315,2.311-4.564,2.3-6.9-.028q-3.461-3.454-6.915-6.916c-2.167-2.178-2.171-4.509-.005-6.683q5.394-5.412,10.808-10.8a11.4,11.4,0,0,1,.962-.764c-.378-.4-.619-.668-.874-.922q-5.4-5.4-10.8-10.807c-2.279-2.282-2.291-4.567-.037-6.829q3.488-3.5,6.988-6.987c2.184-2.172,4.5-2.173,6.679,0q5.411,5.394,10.8,10.806c.262.263.486.564.8.929.366-.347.633-.589.888-.843q5.369-5.365,10.735-10.732c2.386-2.384,4.606-2.4,6.97-.037q3.461,3.454,6.915,6.916c2.173,2.184,2.176,4.5,0,6.679q-5.394,5.412-10.808,10.8a11.522,11.522,0,0,1-.961.765c.377.4.618.667.872.921q5.365,5.369,10.732,10.735c2.409,2.411,2.4,4.611-.032,7.043q-3.42,3.423-6.844,6.842c-2.185,2.173-4.5,2.177-6.679,0q-5.737-5.717-11.461-11.446A5.31,5.31,0,0,0,127.709,141.615ZM142.977,151.7a11.916,11.916,0,0,0,.934-.752q3.468-3.447,6.919-6.911c.973-.974.971-1.128-.028-2.127q-6.085-6.089-12.172-12.174c-1.431-1.432-1.434-2.15-.014-3.571q6.121-6.124,12.244-12.246c.935-.936.932-1.105-.017-2.056q-3.418-3.425-6.843-6.843c-.946-.944-1.114-.946-2.055-.006q-6.125,6.12-12.247,12.244c-1.418,1.417-2.135,1.411-3.571-.024q-6.124-6.121-12.246-12.244c-.9-.9-1.094-.9-1.982-.017q-3.463,3.452-6.916,6.914c-.93.932-.927,1.1.029,2.054q6.121,6.125,12.244,12.246c1.384,1.385,1.387,2.124.013,3.5q-6.156,6.161-12.316,12.319c-.893.895-.89,1.072.016,1.981q3.417,3.426,6.842,6.843c.995.994,1.14,1,2.127.009q6.089-6.085,12.174-12.173c1.466-1.465,2.161-1.461,3.644.021q6.088,6.086,12.177,12.169A13.2,13.2,0,0,0,142.977,151.7Z" transform="translate(-75.13 -75.136)" fill="#5ba60d"/>
    <path id="Pfad_2560" data-name="Pfad 2560" d="M5.85,55.839c.483,15.539,7.267,28.965,20.9,38.818.413.3.847.569,1.242.888a1.713,1.713,0,0,1,.481,2.417,1.675,1.675,0,0,1-2.433.313,96.693,96.693,0,0,1-7.824-6.331A49.542,49.542,0,0,1,3.482,64.624C.388,47.532,4.6,32.358,16.237,19.429A49.633,49.633,0,0,1,44.767,3.462c14.912-2.743,28.566.4,40.891,9.248a1.723,1.723,0,0,1,.683,2.449c-.565.878-1.527,1-2.59.364-2.849-1.7-5.6-3.613-8.58-5.044A46.947,46.947,0,0,0,48.4,6.318,47.318,47.318,0,0,0,19.246,21.16c-8.863,9.37-13.215,20.6-13.4,34.678" transform="translate(-1.862 -1.862)" fill="#5ba60d"/>
    <path id="Pfad_2561" data-name="Pfad 2561" d="M5.85,55.839c.483,15.539,7.267,28.965,20.9,38.818.413.3.847.569,1.242.888a1.713,1.713,0,0,1,.481,2.417,1.675,1.675,0,0,1-2.433.313,96.693,96.693,0,0,1-7.824-6.331A49.542,49.542,0,0,1,3.482,64.624C.388,47.532,4.6,32.358,16.237,19.429A49.633,49.633,0,0,1,44.767,3.462c14.912-2.743,28.566.4,40.891,9.248a1.723,1.723,0,0,1,.683,2.449c-.565.878-1.527,1-2.59.364-2.849-1.7-5.6-3.613-8.58-5.044A46.947,46.947,0,0,0,48.4,6.318,47.318,47.318,0,0,0,19.246,21.16C10.382,30.53,6.031,41.762,5.85,55.839Z" transform="translate(-1.862 -1.862)" fill="#5ba60d"/>
  </g>
</svg>
