<svg id="Gruppe_106" data-name="Gruppe 106" xmlns="http://www.w3.org/2000/svg" xmlns:xlink="http://www.w3.org/1999/xlink" width="105.676" height="105.686" viewBox="0 0 105.676 105.686">
  <defs>
    <clipPath id="clip-path">
      <rect id="Rechteck_82" data-name="Rechteck 82" width="105.676" height="105.686" fill="#5ba60d"/>
    </clipPath>
  </defs>
  <g id="Gruppe_105" data-name="Gruppe 105" clip-path="url(#clip-path)">
    <path id="Pfad_2567" data-name="Pfad 2567" d="M113.295,140.375a33.941,33.941,0,0,1-2.351-11.811,32.721,32.721,0,0,1,21.213-31.086,25.152,25.152,0,0,0,11.43-7.8c1.076-1.328,2.322-1.3,3.475.018,6.25,7.134,9.2,15.459,8.13,24.88-1.574,13.845-9.124,23.241-22.207,28.04a30.981,30.981,0,0,1-15.828,1.247,5.062,5.062,0,0,0-1.848.148c-3.059.682-6.1,1.437-9.166,2.092a1.945,1.945,0,0,1-2.414-1.67,1.992,1.992,0,0,1,1.766-2.263c2.448-.521,4.892-1.057,7.337-1.591a3.154,3.154,0,0,0,.464-.2m28.462-20.144,1.068-.339c1.384-.438,2.479.021,2.858,1.2a2.062,2.062,0,0,1-1.568,2.6c-1.545.538-3.116,1.007-4.643,1.59a2.815,2.815,0,0,0-1.279.984,44.52,44.52,0,0,1-13.768,13.4c-.2.127-.384.3-.666.515a28.26,28.26,0,0,0,25.188-17.057c4.757-10.672,2.089-22.431-3.7-29.209-.148.134-.3.261-.442.4a26.786,26.786,0,0,1-10.313,6.561,31.76,31.76,0,0,0-3.867,1.646,28.662,28.662,0,0,0-15.32,30c.327,2.187,1.046,4.315,1.6,6.542a38.8,38.8,0,0,0,8.921-5.294,1.056,1.056,0,0,0,.311-.821c-.147-1.193-.37-2.377-.559-3.564-.252-1.584-.548-3.163-.73-4.755a1.867,1.867,0,0,1,1.65-2.14,1.936,1.936,0,0,1,2.241,1.534c.078.289.119.589.169.885.291,1.72.58,3.441.9,5.327a38.753,38.753,0,0,0,5.623-7.145,40.581,40.581,0,0,0,4.928-11.676c.056-.227.114-.454.188-.676a2,2,0,0,1,2.41-1.441,1.9,1.9,0,0,1,1.429,2.395c-.814,2.849-1.738,5.667-2.632,8.542" transform="translate(-77.232 -66.052)" fill="#5ba60d" stroke="#000" stroke-width="1"/>
    <path id="Pfad_2568" data-name="Pfad 2568" d="M113.295,140.375a33.941,33.941,0,0,1-2.351-11.811,32.721,32.721,0,0,1,21.213-31.086,25.152,25.152,0,0,0,11.43-7.8c1.076-1.328,2.322-1.3,3.475.018,6.25,7.134,9.2,15.459,8.13,24.88-1.574,13.845-9.124,23.241-22.207,28.04a30.981,30.981,0,0,1-15.828,1.247,5.062,5.062,0,0,0-1.848.148c-3.059.682-6.1,1.437-9.166,2.092a1.945,1.945,0,0,1-2.414-1.67,1.992,1.992,0,0,1,1.766-2.263c2.448-.521,4.892-1.057,7.337-1.591A3.154,3.154,0,0,0,113.295,140.375Zm28.462-20.144,1.068-.339c1.384-.438,2.479.021,2.858,1.2a2.062,2.062,0,0,1-1.568,2.6c-1.545.538-3.116,1.007-4.643,1.59a2.815,2.815,0,0,0-1.279.984,44.52,44.52,0,0,1-13.768,13.4c-.2.127-.384.3-.666.515a28.26,28.26,0,0,0,25.188-17.057c4.757-10.672,2.089-22.431-3.7-29.209-.148.134-.3.261-.442.4a26.786,26.786,0,0,1-10.313,6.561,31.76,31.76,0,0,0-3.867,1.646,28.662,28.662,0,0,0-15.32,30c.327,2.187,1.046,4.315,1.6,6.542a38.8,38.8,0,0,0,8.921-5.294,1.056,1.056,0,0,0,.311-.821c-.147-1.193-.37-2.377-.559-3.564-.252-1.584-.548-3.163-.73-4.755a1.867,1.867,0,0,1,1.65-2.14,1.936,1.936,0,0,1,2.241,1.534c.078.289.119.589.169.885.291,1.72.58,3.441.9,5.327a38.753,38.753,0,0,0,5.623-7.145,40.581,40.581,0,0,0,4.928-11.676c.056-.227.114-.454.188-.676a2,2,0,0,1,2.41-1.441,1.9,1.9,0,0,1,1.429,2.395C143.574,114.539,142.65,117.357,141.756,120.231Z" transform="translate(-77.232 -66.052)" fill="#5ba60d"/>
    <path id="Pfad_2569" data-name="Pfad 2569" d="M194.506,97.091c-.225,1.979-.381,3.969-.685,5.936a52.211,52.211,0,0,1-43.335,43.57c-1.369.221-2.746.387-4.119.579l-6.317.125c-1.475-.167-2.952-.327-4.426-.5a50.475,50.475,0,0,1-14.169-3.888c-1.149-.5-1.579-1.4-1.164-2.341a1.723,1.723,0,0,1,2.495-.775,44.95,44.95,0,0,0,13.09,3.618c18.511,1.961,33.732-4.237,45.23-18.9,7.651-9.758,10.741-21.068,9.772-33.4a47.6,47.6,0,0,0-13.849-30.268c-.379-.389-.787-.751-1.149-1.155a1.712,1.712,0,0,1-.06-2.463,1.672,1.672,0,0,1,2.458.1c1.186,1.165,2.365,2.346,3.449,3.6a51.226,51.226,0,0,1,12.216,26.947c.133.966.291,1.928.438,2.892q.062,3.159.125,6.317" transform="translate(-89.469 -42.254)" fill="#5ba60d"/>
    <path id="Pfad_2570" data-name="Pfad 2570" d="M194.506,97.091c-.225,1.979-.381,3.969-.685,5.936a52.211,52.211,0,0,1-43.335,43.57c-1.369.221-2.746.387-4.119.579l-6.317.125c-1.475-.167-2.952-.327-4.426-.5a50.475,50.475,0,0,1-14.169-3.888c-1.149-.5-1.579-1.4-1.164-2.341a1.723,1.723,0,0,1,2.495-.775,44.95,44.95,0,0,0,13.09,3.618c18.511,1.961,33.732-4.237,45.23-18.9,7.651-9.758,10.741-21.068,9.772-33.4a47.6,47.6,0,0,0-13.849-30.268c-.379-.389-.787-.751-1.149-1.155a1.712,1.712,0,0,1-.06-2.463,1.672,1.672,0,0,1,2.458.1c1.186,1.165,2.365,2.346,3.449,3.6a51.226,51.226,0,0,1,12.216,26.947c.133.966.291,1.928.438,2.892Q194.444,93.932,194.506,97.091Z" transform="translate(-89.469 -42.254)" fill="#5ba60d"/>
    <path id="Pfad_2571" data-name="Pfad 2571" d="M5.9,56.811c.791,15.527,7.84,28.815,21.67,38.4.418.29.858.552,1.26.863a1.713,1.713,0,0,1,.529,2.407,1.676,1.676,0,0,1-2.427.361,96.658,96.658,0,0,1-7.948-6.175A49.543,49.543,0,0,1,3.7,65.642C.27,48.615,4.177,33.361,15.56,20.2A49.633,49.633,0,0,1,43.767,3.675C58.623.636,72.336,3.5,84.834,12.111a1.723,1.723,0,0,1,.732,2.435c-.548.889-1.507,1.028-2.582.415-2.882-1.646-5.67-3.5-8.678-4.873a46.947,46.947,0,0,0-26.853-3.63A47.317,47.317,0,0,0,18.6,21.875C9.926,31.418,5.8,42.735,5.9,56.811" transform="translate(-1.862 -1.861)" fill="#5ba60d"/>
    <path id="Pfad_2572" data-name="Pfad 2572" d="M5.9,56.811c.791,15.527,7.84,28.815,21.67,38.4.418.29.858.552,1.26.863a1.713,1.713,0,0,1,.529,2.407,1.676,1.676,0,0,1-2.427.361,96.658,96.658,0,0,1-7.948-6.175A49.543,49.543,0,0,1,3.7,65.642C.27,48.615,4.177,33.361,15.56,20.2A49.633,49.633,0,0,1,43.767,3.675C58.623.636,72.336,3.5,84.834,12.111a1.723,1.723,0,0,1,.732,2.435c-.548.889-1.507,1.028-2.582.415-2.882-1.646-5.67-3.5-8.678-4.873a46.947,46.947,0,0,0-26.853-3.63A47.317,47.317,0,0,0,18.6,21.875C9.926,31.418,5.8,42.735,5.9,56.811Z" transform="translate(-1.862 -1.861)" fill="#5ba60d"/>
  </g>
</svg>
