<svg id="Gruppe_104" data-name="Gruppe 104" xmlns="http://www.w3.org/2000/svg" xmlns:xlink="http://www.w3.org/1999/xlink" width="105.676" height="105.686" viewBox="0 0 105.676 105.686">
  <defs>
    <clipPath id="clip-path">
      <rect id="Rechteck_81" data-name="Rechteck 81" width="105.676" height="105.686" fill="#5ba60d"/>
    </clipPath>
  </defs>
  <g id="Gruppe_103" data-name="Gruppe 103" clip-path="url(#clip-path)">
    <path id="Pfad_2562" data-name="Pfad 2562" d="M107.853,140.837c.8-4.658,1.584-9.608,2.521-14.529a2.974,2.974,0,0,0-1.013-3.1c-3.415-3.217-6.739-6.532-10.112-9.793-.937-.906-1.693-1.861-1.194-3.258.489-1.369,1.625-1.672,2.942-1.852,4.8-.655,9.594-1.428,14.4-2.077a2.2,2.2,0,0,0,1.89-1.43c2.014-4.171,4.1-8.306,6.125-12.473.629-1.3,1.2-2.584,2.929-2.6s2.344,1.22,2.978,2.531c2.041,4.218,4.148,8.4,6.192,12.621a2.039,2.039,0,0,0,1.78,1.323c4.914.654,9.81,1.437,14.719,2.126a2.9,2.9,0,0,1,2.726,1.916,2.792,2.792,0,0,1-1.052,3.013c-3.525,3.416-7.015,6.868-10.574,10.248a2.375,2.375,0,0,0-.8,2.414c.849,4.664,1.653,9.337,2.454,14.01.221,1.289.431,2.609-.836,3.551-1.325.985-2.535.378-3.761-.274-3.948-2.1-7.943-4.113-11.844-6.294a3.43,3.43,0,0,0-3.831-.026c-4.133,2.318-8.357,4.475-12.568,6.651-2.226,1.151-4.187-.037-4.073-2.7m5.974-4.147c3.744-1.968,7.189-3.722,10.575-5.585a3.724,3.724,0,0,1,3.949-.011c2.782,1.535,5.614,2.979,8.428,4.457.624.328,1.256.642,2.143,1.094-.713-4.193-1.309-8.021-2.037-11.823a3.585,3.585,0,0,1,1.174-3.615c2.163-2.029,4.256-4.133,6.4-6.187.675-.648,1.408-1.236,2.114-1.852A72.791,72.791,0,0,0,136.1,111.3c-2.367-.238-3.942-1.078-4.917-3.416-1.355-3.252-3.078-6.351-4.762-9.756-.415.757-.708,1.248-.961,1.757-1.507,3.04-3.026,6.074-4.5,9.131a3.206,3.206,0,0,1-2.7,2c-2.086.247-4.159.6-6.237.909-1.873.282-3.746.571-5.278.805,2.649,2.826,5.266,5.687,7.968,8.467a3.738,3.738,0,0,1,1.155,3.628c-.728,3.8-1.323,7.63-2.042,11.862" transform="translate(-72.905 -66.819)" fill="#5ba60d" stroke="#000" stroke-width="2"/>
    <path id="Pfad_2563" data-name="Pfad 2563" d="M194.506,97.091c-.225,1.979-.381,3.969-.685,5.936a52.211,52.211,0,0,1-43.335,43.57c-1.369.221-2.746.387-4.119.579l-6.317.125c-1.475-.167-2.952-.327-4.426-.5a50.475,50.475,0,0,1-14.169-3.888c-1.149-.5-1.579-1.4-1.164-2.341a1.723,1.723,0,0,1,2.495-.775,44.95,44.95,0,0,0,13.09,3.618c18.511,1.961,33.732-4.237,45.23-18.9,7.651-9.758,10.741-21.068,9.772-33.4a47.6,47.6,0,0,0-13.849-30.268c-.379-.389-.787-.751-1.149-1.155a1.712,1.712,0,0,1-.06-2.463,1.672,1.672,0,0,1,2.458.1c1.186,1.165,2.365,2.346,3.449,3.6a51.226,51.226,0,0,1,12.216,26.947c.133.966.291,1.928.438,2.892q.062,3.159.125,6.317" transform="translate(-89.469 -42.254)" fill="#5ba60d"/>
    <path id="Pfad_2564" data-name="Pfad 2564" d="M194.506,97.091c-.225,1.979-.381,3.969-.685,5.936a52.211,52.211,0,0,1-43.335,43.57c-1.369.221-2.746.387-4.119.579l-6.317.125c-1.475-.167-2.952-.327-4.426-.5a50.475,50.475,0,0,1-14.169-3.888c-1.149-.5-1.579-1.4-1.164-2.341a1.723,1.723,0,0,1,2.495-.775,44.95,44.95,0,0,0,13.09,3.618c18.511,1.961,33.732-4.237,45.23-18.9,7.651-9.758,10.741-21.068,9.772-33.4a47.6,47.6,0,0,0-13.849-30.268c-.379-.389-.787-.751-1.149-1.155a1.712,1.712,0,0,1-.06-2.463,1.672,1.672,0,0,1,2.458.1c1.186,1.165,2.365,2.346,3.449,3.6a51.226,51.226,0,0,1,12.216,26.947c.133.966.291,1.928.438,2.892Q194.444,93.932,194.506,97.091Z" transform="translate(-89.469 -42.254)" fill="#5ba60d"/>
    <path id="Pfad_2565" data-name="Pfad 2565" d="M5.9,56.811c.791,15.527,7.84,28.815,21.67,38.4.418.29.858.552,1.26.863a1.713,1.713,0,0,1,.529,2.407,1.676,1.676,0,0,1-2.427.361,96.658,96.658,0,0,1-7.948-6.175A49.543,49.543,0,0,1,3.7,65.642C.27,48.615,4.177,33.361,15.56,20.2A49.633,49.633,0,0,1,43.767,3.675C58.623.636,72.336,3.5,84.834,12.111a1.723,1.723,0,0,1,.732,2.435c-.548.889-1.507,1.028-2.582.415-2.882-1.646-5.67-3.5-8.678-4.873a46.947,46.947,0,0,0-26.853-3.63A47.317,47.317,0,0,0,18.6,21.875C9.926,31.418,5.8,42.735,5.9,56.811" transform="translate(-1.862 -1.861)" fill="#5ba60d"/>
    <path id="Pfad_2566" data-name="Pfad 2566" d="M5.9,56.811c.791,15.527,7.84,28.815,21.67,38.4.418.29.858.552,1.26.863a1.713,1.713,0,0,1,.529,2.407,1.676,1.676,0,0,1-2.427.361,96.658,96.658,0,0,1-7.948-6.175A49.543,49.543,0,0,1,3.7,65.642C.27,48.615,4.177,33.361,15.56,20.2A49.633,49.633,0,0,1,43.767,3.675C58.623.636,72.336,3.5,84.834,12.111a1.723,1.723,0,0,1,.732,2.435c-.548.889-1.507,1.028-2.582.415-2.882-1.646-5.67-3.5-8.678-4.873a46.947,46.947,0,0,0-26.853-3.63A47.317,47.317,0,0,0,18.6,21.875C9.926,31.418,5.8,42.735,5.9,56.811Z" transform="translate(-1.862 -1.861)" fill="#5ba60d"/>
  </g>
</svg>
